<svg width="29" height="27" viewBox="0 0 29 27" fill="none" xmlns="http://www.w3.org/2000/svg">
<path d="M14.4666 24.7988C15.2674 24.7988 15.9167 24.1495 15.9167 23.3487C15.9167 22.5478 15.2674 21.8986 14.4666 21.8986C13.6657 21.8986 13.0165 22.5478 13.0165 23.3487C13.0165 24.1495 13.6657 24.7988 14.4666 24.7988Z" fill="#2949FA"/>
<path d="M15.1046 11.7481L12.3495 9.00748L8.7823 5.4693L6.53469 3.22169L3.89556 0.568056C3.76035 0.432853 3.59984 0.325605 3.42319 0.252433C3.24654 0.179262 3.05721 0.141602 2.866 0.141602C2.6748 0.141602 2.48547 0.179262 2.30882 0.252433C2.13216 0.325605 1.97166 0.432853 1.83645 0.568056C1.5634 0.84111 1.41 1.21145 1.41 1.59761C1.41 1.98376 1.5634 2.3541 1.83645 2.62716L3.83755 4.61376L5.95466 6.73086L9.18832 9.97903L11.4359 12.2121L15.4091 16.1853L19.4548 20.2455L25.0376 25.8283C25.1724 25.9642 25.3328 26.0721 25.5095 26.1457C25.6862 26.2193 25.8757 26.2572 26.0672 26.2572C26.2586 26.2572 26.4481 26.2193 26.6248 26.1457C26.8015 26.0721 26.9619 25.9642 27.0967 25.8283C27.2326 25.6935 27.3405 25.5331 27.4141 25.3564C27.4877 25.1797 27.5256 24.9902 27.5256 24.7988C27.5256 24.6073 27.4877 24.4178 27.4141 24.2411C27.3405 24.0644 27.2326 23.904 27.0967 23.7692L15.1046 11.7481ZM28.5613 7.29639C24.7845 3.63375 19.7277 1.58918 14.4666 1.59761C12.2776 1.60354 10.1039 1.96094 8.02826 2.65616L10.3774 5.00528C13.2221 4.29446 16.2012 4.32091 19.0328 5.08211C21.8645 5.84332 24.4553 7.31413 26.5602 9.3555C26.829 9.6146 27.1874 9.76003 27.5607 9.76151C27.7561 9.76077 27.9492 9.72057 28.1286 9.64332C28.3081 9.56608 28.47 9.45338 28.6048 9.31199C28.8604 9.036 28.9987 8.67148 28.9906 8.2954C28.9825 7.91931 28.8286 7.5611 28.5613 7.29639ZM2.60499 5.4403C1.81822 6.00613 1.07203 6.62634 0.37188 7.29639C0.127162 7.5685 -0.00561515 7.92309 0.000182142 8.28901C0.00597944 8.65493 0.149923 9.00513 0.403138 9.26935C0.656352 9.53357 1.00011 9.69228 1.36545 9.71364C1.7308 9.73499 2.0907 9.61742 2.37298 9.3845C3.09613 8.70112 3.87189 8.07566 4.6931 7.5139L2.60499 5.4403ZM21.7169 14.8513C21.8512 14.9883 22.0114 15.0973 22.1881 15.172C22.3649 15.2466 22.5546 15.2855 22.7465 15.2863C23.0299 15.2852 23.3067 15.2011 23.5428 15.0444C23.7789 14.8877 23.964 14.6653 24.075 14.4046C24.1861 14.1439 24.2183 13.8563 24.1678 13.5775C24.1172 13.2987 23.9861 13.0408 23.7905 12.8357C22.5811 11.5825 21.1331 10.584 19.5317 9.89915C17.9304 9.21429 16.2082 8.85688 14.4666 8.84797H14.2346L17.6422 12.2556C19.1896 12.7803 20.5874 13.6707 21.7169 14.8513ZM7.83975 10.6751C6.82646 11.2653 5.89936 11.9923 5.08462 12.8357C4.81733 13.1183 4.67328 13.4956 4.68416 13.8845C4.69504 14.2734 4.85995 14.642 5.14262 14.9093C5.42529 15.1766 5.80256 15.3206 6.19143 15.3097C6.58031 15.2989 6.94894 15.1339 7.21622 14.8513C8.06101 14.0114 9.04149 13.3202 10.1164 12.8067L7.83975 10.6751ZM9.43483 18.1284C9.15793 18.3957 8.99855 18.7621 8.99175 19.1468C8.98839 19.3374 9.02258 19.5267 9.09239 19.704C9.16219 19.8813 9.26623 20.0432 9.39858 20.1803C9.53093 20.3174 9.68898 20.4271 9.86372 20.5031C10.0385 20.5791 10.2265 20.62 10.417 20.6234C10.8018 20.6302 11.1735 20.4838 11.4504 20.2165C12.197 19.528 13.1571 19.1164 14.1705 19.0505C15.1839 18.9845 16.1892 19.2681 17.0187 19.854L13.3645 16.1998C11.8872 16.4225 10.5147 17.096 9.43483 18.1284Z" fill="#2949FA"/>
</svg>
