<svg viewBox="0 0 49 44" fill="none" xmlns="http://www.w3.org/2000/svg">
<path d="M24.3738 41.5426C25.7231 41.5426 26.8169 40.4488 26.8169 39.0995C26.8169 37.7502 25.7231 36.6564 24.3738 36.6564C23.0245 36.6564 21.9307 37.7502 21.9307 39.0995C21.9307 40.4488 23.0245 41.5426 24.3738 41.5426Z" fill="white"/>
<path d="M25.4485 19.5548L20.8066 14.9373L14.7965 8.97618L11.0097 5.18937L6.56329 0.718496C6.3355 0.490705 6.06507 0.310011 5.76744 0.186731C5.46982 0.0634514 5.15083 0 4.82868 0C4.50654 0 4.18755 0.0634514 3.88992 0.186731C3.5923 0.310011 3.32187 0.490705 3.09408 0.718496C2.63404 1.17854 2.37559 1.8025 2.37559 2.4531C2.37559 3.1037 2.63404 3.72766 3.09408 4.1877L6.46556 7.53475L10.0325 11.1017L15.4806 16.5742L19.2674 20.3366L25.9615 27.0307L32.7778 33.8714L42.1837 43.2773C42.4108 43.5063 42.681 43.6881 42.9788 43.8121C43.2765 43.9361 43.5958 44 43.9183 44C44.2408 44 44.5602 43.9361 44.8579 43.8121C45.1556 43.6881 45.4258 43.5063 45.6529 43.2773C45.8819 43.0502 46.0637 42.78 46.1877 42.4823C46.3117 42.1846 46.3756 41.8652 46.3756 41.5427C46.3756 41.2202 46.3117 40.9009 46.1877 40.6032C46.0637 40.3055 45.8819 40.0352 45.6529 39.8081L25.4485 19.5548ZM48.1205 12.0545C41.7572 5.88362 33.2375 2.4389 24.3735 2.4531C20.6856 2.4631 17.0231 3.06525 13.5261 4.23656L17.484 8.19439C22.2768 6.9968 27.2959 7.04136 32.0668 8.32384C36.8376 9.60633 41.2026 12.0844 44.749 15.5237C45.2019 15.9602 45.8057 16.2053 46.4347 16.2078C46.7638 16.2065 47.0893 16.1388 47.3915 16.0086C47.6938 15.8785 47.9667 15.6886 48.1937 15.4504C48.6244 14.9854 48.8575 14.3713 48.8438 13.7376C48.8301 13.104 48.5708 12.5005 48.1205 12.0545V12.0545ZM4.38893 8.92732C3.06336 9.88064 1.80616 10.9256 0.626548 12.0545C0.214245 12.5129 -0.00946049 13.1104 0.000306876 13.7269C0.0100742 14.3434 0.252592 14.9334 0.679212 15.3786C1.10583 15.8237 1.685 16.0911 2.30053 16.1271C2.91607 16.1631 3.52245 15.965 3.99803 15.5726C5.2164 14.4212 6.52342 13.3674 7.90699 12.421L4.38893 8.92732ZM36.589 24.7831C36.8153 25.0139 37.0851 25.1975 37.3829 25.3234C37.6806 25.4492 38.0004 25.5146 38.3236 25.516C38.801 25.5142 39.2675 25.3725 39.6653 25.1085C40.0631 24.8445 40.3748 24.4697 40.5619 24.0305C40.7491 23.5912 40.8034 23.1068 40.7182 22.637C40.633 22.1672 40.4121 21.7327 40.0826 21.3871C38.045 19.2757 35.6053 17.5935 32.9073 16.4397C30.2094 15.2858 27.3078 14.6836 24.3735 14.6686H23.9826L29.7239 20.4099C32.3309 21.2939 34.686 22.7941 36.589 24.7831V24.7831ZM13.2085 17.7469C11.5013 18.7413 9.93932 19.9662 8.56663 21.3871C8.11631 21.8634 7.87361 22.499 7.89194 23.1542C7.91026 23.8094 8.18811 24.4304 8.66436 24.8808C9.1406 25.3311 9.77623 25.5738 10.4314 25.5555C11.0866 25.5371 11.7077 25.2593 12.158 24.7831C13.5813 23.368 15.2332 22.2034 17.0442 21.3383L13.2085 17.7469ZM15.8959 30.3045C15.4294 30.7548 15.1609 31.372 15.1494 32.0203C15.1438 32.3413 15.2014 32.6603 15.319 32.9591C15.4366 33.2578 15.6119 33.5305 15.8349 33.7615C16.0578 33.9925 16.3241 34.1773 16.6185 34.3054C16.9129 34.4334 17.2297 34.5023 17.5507 34.508C18.199 34.5194 18.8253 34.2729 19.2918 33.8225C20.5496 32.6625 22.1672 31.9691 23.8746 31.8579C25.582 31.7467 27.2758 32.2246 28.6734 33.2118L22.5167 27.0551C20.0277 27.4302 17.7154 28.5651 15.8959 30.3045V30.3045Z" fill="white"/>
</svg>
