<svg width="39" height="29" viewBox="0 0 39 29" fill="none" xmlns="http://www.w3.org/2000/svg">
<path d="M6.5 3.22222V19.3333H14.625V12.8889C14.625 12.0343 14.9674 11.2147 15.5769 10.6104C16.1864 10.0062 17.013 9.66667 17.875 9.66667H26C26.862 9.66667 27.6886 10.0062 28.2981 10.6104C28.9076 11.2147 29.25 12.0343 29.25 12.8889V19.3333H32.5V3.22222H6.5ZM0 25.7778V22.5556H6.5C5.63805 22.5556 4.8114 22.2161 4.2019 21.6118C3.59241 21.0075 3.25 20.1879 3.25 19.3333V3.22222C3.25 2.36764 3.59241 1.54805 4.2019 0.943767C4.8114 0.339483 5.63805 0 6.5 0H32.5C33.362 0 34.1886 0.339483 34.7981 0.943767C35.4076 1.54805 35.75 2.36764 35.75 3.22222V19.3333C35.75 20.1879 35.4076 21.0075 34.7981 21.6118C34.1886 22.2161 33.362 22.5556 32.5 22.5556H39V25.7778H29.25C29.25 26.6324 28.9076 27.4519 28.2981 28.0562C27.6886 28.6605 26.862 29 26 29H17.875C17.013 29 16.1864 28.6605 15.5769 28.0562C14.9674 27.4519 14.625 26.6324 14.625 25.7778H0ZM18.6875 25.7778C18.472 25.7778 18.2653 25.8626 18.113 26.0137C17.9606 26.1648 17.875 26.3697 17.875 26.5833C17.875 26.797 17.9606 27.0019 18.113 27.1529C18.2653 27.304 18.472 27.3889 18.6875 27.3889C18.903 27.3889 19.1097 27.304 19.262 27.1529C19.4144 27.0019 19.5 26.797 19.5 26.5833C19.5 26.3697 19.4144 26.1648 19.262 26.0137C19.1097 25.8626 18.903 25.7778 18.6875 25.7778ZM25.1875 25.7778C24.972 25.7778 24.7653 25.8626 24.613 26.0137C24.4606 26.1648 24.375 26.3697 24.375 26.5833C24.375 26.797 24.4606 27.0019 24.613 27.1529C24.7653 27.304 24.972 27.3889 25.1875 27.3889C25.403 27.3889 25.6097 27.304 25.762 27.1529C25.9144 27.0019 26 26.797 26 26.5833C26 26.3697 25.9144 26.1648 25.762 26.0137C25.6097 25.8626 25.403 25.7778 25.1875 25.7778ZM21.125 25.7778V27.3889H22.75V25.7778H21.125ZM17.875 12.8889V24.1667H26V12.8889H17.875Z" fill="#2949FA"/>
</svg>
