<svg viewBox="0 0 59 44" fill="none" xmlns="http://www.w3.org/2000/svg">
<path d="M9.83333 4.88889V29.3333H22.125V19.5556C22.125 18.2589 22.643 17.0154 23.5651 16.0986C24.4871 15.1817 25.7377 14.6667 27.0417 14.6667H39.3333C40.6373 14.6667 41.8879 15.1817 42.8099 16.0986C43.732 17.0154 44.25 18.2589 44.25 19.5556V29.3333H49.1667V4.88889H9.83333ZM0 39.1111V34.2222H9.83333C8.52935 34.2222 7.27878 33.7071 6.35672 32.7903C5.43467 31.8735 4.91667 30.6299 4.91667 29.3333V4.88889C4.91667 3.59227 5.43467 2.34877 6.35672 1.43192C7.27878 0.515078 8.52935 0 9.83333 0H49.1667C50.4706 0 51.7212 0.515078 52.6433 1.43192C53.5653 2.34877 54.0833 3.59227 54.0833 4.88889V29.3333C54.0833 30.6299 53.5653 31.8735 52.6433 32.7903C51.7212 33.7071 50.4706 34.2222 49.1667 34.2222H59V39.1111H44.25C44.25 40.4077 43.732 41.6512 42.8099 42.5681C41.8879 43.4849 40.6373 44 39.3333 44H27.0417C25.7377 44 24.4871 43.4849 23.5651 42.5681C22.643 41.6512 22.125 40.4077 22.125 39.1111H0ZM28.2708 39.1111C27.9448 39.1111 27.6322 39.2399 27.4017 39.4691C27.1712 39.6983 27.0417 40.0092 27.0417 40.3333C27.0417 40.6575 27.1712 40.9684 27.4017 41.1976C27.6322 41.4268 27.9448 41.5556 28.2708 41.5556C28.5968 41.5556 28.9095 41.4268 29.14 41.1976C29.3705 40.9684 29.5 40.6575 29.5 40.3333C29.5 40.0092 29.3705 39.6983 29.14 39.4691C28.9095 39.2399 28.5968 39.1111 28.2708 39.1111ZM38.1042 39.1111C37.7782 39.1111 37.4655 39.2399 37.235 39.4691C37.0045 39.6983 36.875 40.0092 36.875 40.3333C36.875 40.6575 37.0045 40.9684 37.235 41.1976C37.4655 41.4268 37.7782 41.5556 38.1042 41.5556C38.4302 41.5556 38.7428 41.4268 38.9733 41.1976C39.2038 40.9684 39.3333 40.6575 39.3333 40.3333C39.3333 40.0092 39.2038 39.6983 38.9733 39.4691C38.7428 39.2399 38.4302 39.1111 38.1042 39.1111ZM31.9583 39.1111V41.5556H34.4167V39.1111H31.9583ZM27.0417 19.5556V36.6667H39.3333V19.5556H27.0417Z" fill="white"/>
</svg>
