<svg viewBox="0 0 56 44" fill="none" xmlns="http://www.w3.org/2000/svg">
<path d="M2.8 27.5C2.05739 27.5 1.3452 27.7897 0.820102 28.3055C0.295 28.8212 1.1084e-06 29.5207 1.1084e-06 30.25C1.1084e-06 30.9793 0.295 31.6788 0.820102 32.1945C1.3452 32.7103 2.05739 33 2.8 33C5.02782 33 7.16439 33.8692 8.7397 35.4164C10.315 36.9635 11.2 39.062 11.2 41.25C11.2 41.9793 11.495 42.6788 12.0201 43.1945C12.5452 43.7103 13.2574 44 14 44C14.7426 44 15.4548 43.7103 15.9799 43.1945C16.505 42.6788 16.8 41.9793 16.8 41.25C16.8 37.6033 15.325 34.1059 12.6995 31.5273C10.074 28.9487 6.51303 27.5 2.8 27.5ZM0.812001 39.2975C0.422711 39.683 0.158316 40.173 0.0521358 40.7059C-0.0540443 41.2387 0.0027427 41.7905 0.21534 42.2916C0.427938 42.7928 0.786832 43.221 1.24679 43.5222C1.70675 43.8233 2.24719 43.9841 2.8 43.9841C3.35281 43.9841 3.89325 43.8233 4.35321 43.5222C4.81317 43.221 5.17206 42.7928 5.38466 42.2916C5.59726 41.7905 5.65405 41.2387 5.54787 40.7059C5.44169 40.173 5.17729 39.683 4.788 39.2975C4.5277 39.0397 4.21802 38.8352 3.87682 38.6955C3.53561 38.5559 3.16963 38.4841 2.8 38.4841C2.43037 38.4841 2.06439 38.5559 1.72319 38.6955C1.38198 38.8352 1.0723 39.0397 0.812001 39.2975ZM47.6 0H8.4C6.17218 0 4.03561 0.869194 2.4603 2.41637C0.884999 3.96354 1.1084e-06 6.06196 1.1084e-06 8.25C1.1084e-06 8.97935 0.295 9.67882 0.820102 10.1945C1.3452 10.7103 2.05739 11 2.8 11C3.54261 11 4.2548 10.7103 4.7799 10.1945C5.305 9.67882 5.6 8.97935 5.6 8.25C5.6 7.52065 5.895 6.82118 6.4201 6.30546C6.9452 5.78973 7.65739 5.5 8.4 5.5H47.6C48.3426 5.5 49.0548 5.78973 49.5799 6.30546C50.105 6.82118 50.4 7.52065 50.4 8.25V35.75C50.4 36.4793 50.105 37.1788 49.5799 37.6945C49.0548 38.2103 48.3426 38.5 47.6 38.5H36.4C35.6574 38.5 34.9452 38.7897 34.4201 39.3055C33.895 39.8212 33.6 40.5207 33.6 41.25C33.6 41.9793 33.895 42.6788 34.4201 43.1945C34.9452 43.7103 35.6574 44 36.4 44H47.6C49.8278 44 51.9644 43.1308 53.5397 41.5836C55.115 40.0365 56 37.938 56 35.75V8.25C56 6.06196 55.115 3.96354 53.5397 2.41637C51.9644 0.869194 49.8278 0 47.6 0ZM2.8 16.5C2.05739 16.5 1.3452 16.7897 0.820102 17.3055C0.295 17.8212 1.1084e-06 18.5207 1.1084e-06 19.25C1.1084e-06 19.9793 0.295 20.6788 0.820102 21.1945C1.3452 21.7103 2.05739 22 2.8 22C7.99824 22 12.9836 24.0281 16.6593 27.6382C20.335 31.2483 22.4 36.1446 22.4 41.25C22.4 41.9793 22.695 42.6788 23.2201 43.1945C23.7452 43.7103 24.4574 44 25.2 44C25.9426 44 26.6548 43.7103 27.1799 43.1945C27.705 42.6788 28 41.9793 28 41.25C28 34.6859 25.345 28.3906 20.6191 23.7491C15.8932 19.1076 9.48346 16.5 2.8 16.5Z" fill="white"/>
</svg>
