<svg width="39" height="31" viewBox="0 0 39 31" fill="none" xmlns="http://www.w3.org/2000/svg">
<path d="M1.95 19.375C1.43283 19.375 0.936838 19.5791 0.571142 19.9425C0.205447 20.3058 7.71922e-07 20.7986 7.71922e-07 21.3125C7.71922e-07 21.8264 0.205447 22.3192 0.571142 22.6825C0.936838 23.0459 1.43283 23.25 1.95 23.25C3.50152 23.25 4.98949 23.8624 6.08658 24.9524C7.18366 26.0425 7.8 27.5209 7.8 29.0625C7.8 29.5764 8.00545 30.0692 8.37114 30.4325C8.73684 30.7959 9.23283 31 9.75 31C10.2672 31 10.7632 30.7959 11.1289 30.4325C11.4946 30.0692 11.7 29.5764 11.7 29.0625C11.7 26.4932 10.6728 24.0292 8.84429 22.2124C7.01581 20.3956 4.53586 19.375 1.95 19.375ZM0.565501 27.6869C0.294388 27.9585 0.110256 28.3037 0.0363089 28.6791C-0.037638 29.0545 0.00191009 29.4433 0.149969 29.7964C0.298028 30.1495 0.547972 30.4511 0.868301 30.6633C1.18863 30.8755 1.56501 30.9888 1.95 30.9888C2.33499 30.9888 2.71137 30.8755 3.0317 30.6633C3.35203 30.4511 3.60197 30.1495 3.75003 29.7964C3.89809 29.4433 3.93764 29.0545 3.86369 28.6791C3.78975 28.3037 3.60561 27.9585 3.3345 27.6869C3.15322 27.5053 2.93755 27.3611 2.69992 27.2628C2.4623 27.1644 2.20742 27.1138 1.95 27.1138C1.69258 27.1138 1.4377 27.1644 1.20008 27.2628C0.962451 27.3611 0.746779 27.5053 0.565501 27.6869ZM33.15 0H5.85C4.29848 0 2.81051 0.612387 1.71343 1.70244C0.616339 2.7925 7.71922e-07 4.27093 7.71922e-07 5.8125C7.71922e-07 6.32636 0.205447 6.81917 0.571142 7.18252C0.936838 7.54587 1.43283 7.75 1.95 7.75C2.46717 7.75 2.96316 7.54587 3.32886 7.18252C3.69456 6.81917 3.9 6.32636 3.9 5.8125C3.9 5.29864 4.10545 4.80583 4.47114 4.44248C4.83684 4.07913 5.33283 3.875 5.85 3.875H33.15C33.6672 3.875 34.1632 4.07913 34.5289 4.44248C34.8946 4.80583 35.1 5.29864 35.1 5.8125V25.1875C35.1 25.7014 34.8946 26.1942 34.5289 26.5575C34.1632 26.9209 33.6672 27.125 33.15 27.125H25.35C24.8328 27.125 24.3368 27.3291 23.9711 27.6925C23.6054 28.0558 23.4 28.5486 23.4 29.0625C23.4 29.5764 23.6054 30.0692 23.9711 30.4325C24.3368 30.7959 24.8328 31 25.35 31H33.15C34.7015 31 36.1895 30.3876 37.2866 29.2976C38.3837 28.2075 39 26.7291 39 25.1875V5.8125C39 4.27093 38.3837 2.7925 37.2866 1.70244C36.1895 0.612387 34.7015 0 33.15 0ZM1.95 11.625C1.43283 11.625 0.936838 11.8291 0.571142 12.1925C0.205447 12.5558 7.71922e-07 13.0486 7.71922e-07 13.5625C7.71922e-07 14.0764 0.205447 14.5692 0.571142 14.9325C0.936838 15.2959 1.43283 15.5 1.95 15.5C5.57021 15.5 9.04214 16.9289 11.602 19.4724C14.1619 22.0158 15.6 25.4655 15.6 29.0625C15.6 29.5764 15.8054 30.0692 16.1711 30.4325C16.5368 30.7959 17.0328 31 17.55 31C18.0672 31 18.5632 30.7959 18.9289 30.4325C19.2946 30.0692 19.5 29.5764 19.5 29.0625C19.5 24.4378 17.651 20.0025 14.3597 16.7323C11.0685 13.4622 6.60455 11.625 1.95 11.625Z" fill="#2949FA"/>
</svg>
