  <svg viewBox="0 0 56 44" fill="none" xmlns="http://www.w3.org/2000/svg">
                      <path d="M2 36.2857V7.71429C2 6.19876 2.60204 4.74531 3.67368 3.67368C4.74531 2.60204 6.19876 2 7.71429 2H47.7143C49.2298 2 50.6833 2.60204 51.7549 3.67368C52.8265 4.74531 53.4286 6.19876 53.4286 7.71429V36.2857C53.4286 37.8012 52.8265 39.2547 51.7549 40.3263C50.6833 41.398 49.2298 42 47.7143 42H7.71429C6.19876 42 4.74531 41.398 3.67368 40.3263C2.60204 39.2547 2 37.8012 2 36.2857Z" stroke="white" stroke-width="3.5"/>
                      <path d="M10.5715 10.5714H13.4287M26.763 13.4286L22.0001 22H33.4287L28.6658 30.5714L26.763 13.4286Z" stroke="white" stroke-width="2" stroke-linecap="round" stroke-linejoin="round"/>
                      </svg>