<svg width="41" height="33" viewBox="0 0 41 33" fill="none" xmlns="http://www.w3.org/2000/svg">
<path d="M2 26.6667V6.11111C2 5.02078 2.43313 3.9751 3.20412 3.20412C3.9751 2.43313 5.02078 2 6.11111 2H34.8889C35.9792 2 37.0249 2.43313 37.7959 3.20412C38.5669 3.9751 39 5.02078 39 6.11111V26.6667C39 27.757 38.5669 28.8027 37.7959 29.5737C37.0249 30.3446 35.9792 30.7778 34.8889 30.7778H6.11111C5.02078 30.7778 3.9751 30.3446 3.20412 29.5737C2.43313 28.8027 2 27.757 2 26.6667Z" stroke="#2949FA" stroke-width="3.5"/>
<path d="M8.16669 8.16666H10.2222M19.8155 10.2222L16.3889 16.3889H24.6111L21.1845 22.5555L19.8155 10.2222Z" stroke="#2949FA" stroke-width="2" stroke-linecap="round" stroke-linejoin="round"/>
</svg>
